<svg xmlns="http://www.w3.org/2000/svg" viewBox="0 0 100 100">
  <path d="M50 12 C30 12, 18 35, 18 60 C18 82, 32 92, 50 92 C68 92, 82 82, 82 60 C82 35, 70 12, 50 12 Z" fill="#2E5A1C"/>
  <path d="M50 18 C33 18, 24 38, 24 60 C24 78, 35 86, 50 86 C65 86, 76 78, 76 60 C76 38, 67 18, 50 18 Z" fill="#84B03B"/>
  <path d="M50 26 C38 26, 30 42, 30 60 C30 74, 38 80, 50 80 C62 80, 70 74, 70 60 C70 42, 62 26, 50 26 Z" fill="#D3E37F"/>
  <circle cx="50" cy="60" r="15" fill="#5F3A1D"/>
  <circle cx="46" cy="56" r="4" fill="#FFFFFF" opacity="0.4"/>
</svg>
