<svg viewBox="0 0 24 24" fill="none" xmlns="http://www.w3.org/2000/svg">
	<path d="M12 21C16.4183 21 20 17.4183 20 13C20 11.5 19.5 10.5 18.5 9.5C17.5 8.5 16.5 8 15.5 8C14.5 8 13.5 8.5 12 9.5C10.5 8.5 9.5 8 8.5 8C7.5 8 6.5 8.5 5.5 9.5C4.5 10.5 4 11.5 4 13C4 17.4183 7.58172 21 12 21Z" fill="#FDF3F5" stroke="#10B981" stroke-width="2" stroke-linejoin="round"/>
	<path d="M8.5 8C8.5 8 8 2 10 2C12 2 11.5 7.5 11.5 7.5" stroke="#10B981" stroke-width="2" stroke-linecap="round" stroke-linejoin="round"/>
	<path d="M15.5 8C15.5 8 16 2 14 2C12 2 12.5 7.5 12.5 7.5" stroke="#10B981" stroke-width="2" stroke-linecap="round" stroke-linejoin="round"/>
	<circle cx="9.5" cy="14" r="1.2" fill="#10B981"/>
	<circle cx="14.5" cy="14" r="1.2" fill="#10B981"/>
	<path d="M11.5 15.5C11.8 15.8 12.2 15.8 12.5 15.5" stroke="#10B981" stroke-width="1.5" stroke-linecap="round"/>
</svg>
