<svg viewBox="0 0 24 24" fill="none" xmlns="http://www.w3.org/2000/svg">
	<path d="M6 18V17C6 14.7909 7.79086 13 10 13H14C16.2091 13 18 14.7909 18 17V18" stroke="#8C8C8C" stroke-width="2" stroke-linecap="round"/>
	<path d="M5.5 13C4.11929 13 3 11.8807 3 10.5C3 9.3892 3.7313 8.44896 4.73351 8.1367C4.58153 7.77977 4.5 7.3992 4.5 7C4.5 4.51472 6.51472 2.5 9 2.5C10.6015 2.5 12.0125 3.33777 12.8124 4.59868C13.5186 3.66018 14.6366 3.05 15.9 3.05C18.1091 3.05 19.9 4.84086 19.9 7.05C19.9 7.3992 19.8185 7.77977 19.6665 8.1367C20.6687 8.44896 21.4 9.3892 21.4 10.5C21.4 11.8807 20.2807 13 18.9 13H5.5Z" fill="none" stroke="#8C8C8C" stroke-width="2" stroke-linejoin="round"/>
</svg>
